<svg id="Capa_1" enable-background="new 0 0 512 512" height="512" viewBox="0 0 512 512" width="512" xmlns="http://www.w3.org/2000/svg"><g><path d="m492.23 19.771c-12.75-12.749-29.7-19.771-47.73-19.771-18.029 0-34.981 7.022-47.73 19.771-1.616 1.616-3.165 3.33-4.604 5.093l-85.334 104.538-84.083.001c-20.032 0-38.866 7.801-53.031 21.966l-10.609 10.608 74.245 159.097 258.876-258.876z" fill="#3ec3ff"/><path d="m190.918 512s116.681-116.682 116.681-116.682c-.001 0-116.681 116.682-116.681 116.682z"/><path d="m212.141 299.861 137.884 53.031 10.607-10.607c14.166-14.165 21.967-32.999 21.967-53.032v-84.085l104.541-85.336c1.766-1.442 3.479-2.99 5.09-4.602 12.748-12.749 19.77-29.7 19.77-47.73 0-18.029-7.021-34.98-19.77-47.729z" fill="#09a1e5"/><path d="m116.683 204.403 95.458 180.31 42.426-127.279-95.458-95.458-42.427 42.426z" fill="#dff5ff"/><path d="m169.714 342.287 137.884 53.031 42.427-42.426-95.458-95.458z" fill="#bfebff"/><path d="m259.869 347.589-90.16 26.521-26.52 90.161 47.729 47.729 116.68-116.682z" fill="#ff7169"/><path d="m212.14 299.86-90.16 26.521-26.521 90.161 47.73 47.729 116.68-116.682z" fill="#ff9259"/><path d="m164.411 252.131-90.16 26.521-26.521 90.16 47.73 47.73 116.68-116.682z" fill="#ffb24a"/><path d="m-.3 252.857h165.012v67.5h-165.012z" fill="#ffd23b" transform="matrix(.707 -.707 .707 .707 -178.585 142.075)"/></g></svg>